<?xml version="1.0" standalone="no"?>
<!DOCTYPE svg PUBLIC "-//W3C//DTD SVG 20010904//EN"
 "http://www.w3.org/TR/2001/REC-SVG-20010904/DTD/svg10.dtd">
<svg version="1.0" xmlns="http://www.w3.org/2000/svg"
 width="1772.000000pt" height="1772.000000pt" viewBox="0 0 1772.000000 1772.000000"
 preserveAspectRatio="xMidYMid meet">
<metadata>
Created by potrace 1.14, written by Peter Selinger 2001-2017
</metadata>
<g transform="translate(0.000000,1772.000000) scale(0.100000,-0.100000)"
fill="#000000" stroke="none">
<path d="M8640 16533 c-2306 -72 -4445 -1115 -5927 -2890 -424 -507 -817
-1124 -1094 -1715 -408 -871 -642 -1741 -735 -2728 -22 -236 -30 -907 -15
-1162 61 -1004 288 -1928 697 -2843 109 -244 315 -636 442 -840 l31 -49 64
134 c185 390 444 754 773 1086 235 238 434 400 721 587 1008 659 2344 990
3888 964 496 -9 829 -36 1360 -112 492 -70 797 -95 1140 -95 678 1 1439 125
2085 340 476 158 886 362 1256 625 165 118 290 224 499 425 514 494 886 766
1356 994 415 201 792 296 1171 296 173 0 377 -32 492 -76 22 -8 22 -11 -20
266 -486 3181 -2859 5780 -5989 6559 -708 177 -1464 257 -2195 234z m1995
-5218 c182 -46 345 -175 423 -335 60 -123 75 -192 69 -320 -8 -174 -64 -304
-182 -424 -73 -75 -154 -125 -260 -162 -70 -25 -94 -28 -200 -28 -106 0 -130
3 -200 28 -104 36 -181 83 -255 157 -156 156 -223 382 -176 593 53 236 240
429 476 490 73 19 231 20 305 1z m-1551 -1161 c98 -25 271 -114 401 -207 215
-154 424 -254 672 -322 601 -166 1285 -103 2013 182 173 69 426 184 570 261
105 56 95 42 -85 -113 -641 -553 -1317 -893 -2005 -1009 -621 -105 -1267 -19
-1761 235 -180 93 -261 166 -318 290 -66 141 -63 283 10 428 56 113 170 222
269 257 49 18 160 17 234 -2z"/>
</g>
</svg>
